<?xml version="1.0" standalone="no"?>
<!DOCTYPE svg PUBLIC "-//W3C//DTD SVG 20010904//EN"
 "http://www.w3.org/TR/2001/REC-SVG-20010904/DTD/svg10.dtd">
<svg version="1.0" xmlns="http://www.w3.org/2000/svg"
 width="50.000000pt" height="50.000000pt" viewBox="0 0 50.000000 50.000000"
 preserveAspectRatio="xMidYMid meet">

<g transform="translate(0.000000,50.000000) scale(0.100000,-0.100000)"
fill="#000000" stroke="none">
<path d="M0 250 l0 -250 250 0 250 0 0 250 0 250 -250 0 -250 0 0 -250z m345
80 c70 -71 87 -92 77 -102 -12 -12 -34 6 -132 105 -15 15 -33 27 -41 27 -8 0
-45 -32 -82 -70 -70 -72 -81 -78 -93 -59 -6 10 161 189 176 189 3 0 46 -40 95
-90z m-20 -60 c54 -55 67 -72 57 -82 -10 -10 -25 0 -72 47 l-60 59 -60 -59
c-47 -47 -62 -57 -72 -47 -10 10 3 27 57 82 38 39 72 70 75 70 3 0 37 -31 75
-70z m-23 -57 c26 -26 48 -51 48 -55 0 -16 -27 -7 -50 17 -13 14 -27 25 -32
25 -4 0 -8 -27 -8 -60 0 -33 -4 -60 -10 -60 -6 0 -10 29 -10 67 l0 67 -33 -32
c-31 -30 -57 -41 -57 -25 0 8 91 103 99 103 3 0 27 -21 53 -47z"/>
</g>
</svg>
